<svg width="50" height="51" viewBox="0 0 50 51" fill="none" xmlns="http://www.w3.org/2000/svg">
<g clip-path="url(#clip0_3475_22901)">
<mask id="mask0_3475_22901" style="mask-type:luminance" maskUnits="userSpaceOnUse" x="0" y="0" width="50" height="51">
<path d="M50 0.110352H0V50.1104H50V0.110352Z" fill="white"/>
</mask>
<g mask="url(#mask0_3475_22901)">
<path d="M19.3679 34.8311V47.9441" stroke="#040504" stroke-width="3"/>
<path d="M4.18213 41.0322V47.9442" stroke="#040504" stroke-width="3"/>
<path d="M11.729 28.1963C14.1917 28.1963 16.188 26.2 16.188 23.7373C16.188 21.2747 14.1917 19.2783 11.729 19.2783C9.26638 19.2783 7.27002 21.2747 7.27002 23.7373C7.27002 26.2 9.26638 28.1963 11.729 28.1963Z" stroke="#040504" stroke-width="3"/>
<path d="M2.09302 34.8311H20.8529" stroke="#040504" stroke-width="3"/>
<path d="M28.2589 24.1631C29.0566 24.0337 29.8748 24.1437 30.6099 24.4793C31.3451 24.8149 31.9642 25.3609 32.389 26.0484C32.8138 26.7358 33.0253 27.5338 32.9966 28.3414C32.9679 29.149 32.7004 29.9299 32.2279 30.5855C31.7553 31.2411 31.099 31.7418 30.3419 32.0244C29.5848 32.307 28.761 32.3587 27.9745 32.1731C27.188 31.9874 26.4742 31.5727 25.9234 30.9814C25.3725 30.3901 25.0094 29.6487 24.8799 28.8511C24.794 28.3214 24.8132 27.7799 24.9364 27.2577C25.0597 26.7354 25.2847 26.2425 25.5984 25.8072C25.9122 25.3719 26.3087 25.0026 26.7652 24.7205C27.2217 24.4384 27.7292 24.249 28.2589 24.1631Z" stroke="#040504" stroke-width="3"/>
<path d="M21.365 38.4199H34.797V47.9439" stroke="#040504" stroke-width="3"/>
<path d="M25 17.6231L32.524 10.6161L36.775 13.1441L41.157 8.99812L45.192 4.96412M45.931 13.0961V4.22412H37.058" stroke="#111111" stroke-width="3" stroke-miterlimit="5.333"/>
</g>
</g>
<defs>
<clipPath id="clip0_3475_22901">
<rect width="50" height="50" fill="white" transform="translate(0 0.110352)"/>
</clipPath>
</defs>
</svg>
