<svg version="1.2" xmlns="http://www.w3.org/2000/svg" viewBox="0 0 34 38" width="34" height="38">
	<title>logo-clutch-svg</title>
	<style>
		.s0 { fill: #000000 } 
		.s1 { fill: #0a65c0 } 
	</style>
	<path fill-rule="evenodd" class="s0" d="m33.4 31.4c-3.5 4.1-8.7 6.6-14.4 6.6-10.5 0-19-8.5-19-19 0-10.5 8.5-19 19-19 5.7 0 10.9 2.5 14.4 6.6l-5.5 4.7c-2.2-2.5-5.3-4.1-8.9-4.1-6.5 0-11.8 5.3-11.8 11.8 0 6.5 5.3 11.8 11.8 11.8 3.6 0 6.7-1.6 8.9-4.1z"/>
	<path class="s1" d="m19 25.3c-3.5 0-6.3-2.8-6.3-6.3 0-3.5 2.8-6.3 6.3-6.3 3.5 0 6.3 2.8 6.3 6.3 0 3.5-2.8 6.3-6.3 6.3z"/>
</svg>